<svg width="26" height="24" viewBox="0 0 26 24" fill="none" xmlns="http://www.w3.org/2000/svg">
    <path d="M22.38 23.39C23.14 23.39 23.79 23.13 24.33 22.61C24.87 22.07 25.14 21.43 25.14 20.69C25.14 19.93 24.87 19.29 24.33 18.77C23.79 18.23 23.14 17.96 22.38 17.96C21.64 17.96 21 18.23 20.46 18.77C19.9 19.31 19.62 19.95 19.62 20.69C19.62 21.43 19.9 22.07 20.46 22.61C21 23.13 21.64 23.39 22.38 23.39ZM14.2015 23H19.0615V0.8H14.2015V9.56H5.62148V0.8H0.761483V23H5.62148V14.06H14.2015V23Z"
          fill="currentColor"/>
</svg>